<?xml version="1.0" standalone="no"?>
<!DOCTYPE svg PUBLIC "-//W3C//DTD SVG 20010904//EN"
 "http://www.w3.org/TR/2001/REC-SVG-20010904/DTD/svg10.dtd">
<svg version="1.0" xmlns="http://www.w3.org/2000/svg"
 width="180.000000pt" height="180.000000pt" viewBox="0 0 180.000000 180.000000"
 preserveAspectRatio="xMidYMid meet">

<g transform="translate(0.000000,180.000000) scale(0.100000,-0.100000)"
fill="#000000" stroke="none">
<path d="M892 1424 c-86 -234 -158 -403 -183 -429 -35 -37 -36 -50 -6 -66 22
-12 22 -12 3 10 -19 21 -19 21 15 55 27 26 46 66 89 184 30 84 58 152 61 152
7 0 159 -389 159 -407 0 -8 -14 -13 -37 -13 -90 0 -170 -48 -195 -116 -11 -32
-15 -35 -48 -32 -35 3 -35 3 -36 53 -3 80 -4 86 -12 81 -9 -5 -8 -53 1 -62 3
-4 3 -20 0 -36 -7 -36 7 -48 58 -48 31 0 38 4 43 26 18 71 82 114 181 121 l60
5 38 -104 c43 -119 45 -141 15 -162 -21 -15 -16 -16 74 -16 l96 0 -32 32 c-21
22 -46 68 -71 133 -107 281 -247 641 -254 653 -6 11 -11 7 -19 -14z"/>
<path d="M810 1079 c0 -5 11 -9 24 -9 13 0 33 -3 43 -7 10 -3 15 -3 11 1 -10
12 -78 25 -78 15z"/>
<path d="M790 1000 c0 -5 12 -10 28 -9 24 0 25 1 7 9 -27 12 -35 12 -35 0z"/>
<path d="M646 745 c-9 -21 -16 -41 -16 -45 0 -14 -43 -62 -64 -70 -15 -6 0 -9
49 -9 66 -1 68 0 47 15 -26 18 -28 50 -7 101 8 20 13 38 11 41 -3 2 -12 -13
-20 -33z"/>
<path d="M391 464 c-12 -32 -19 -59 -16 -62 2 -3 7 3 11 12 8 22 60 21 73 -1
5 -10 12 -16 14 -13 6 7 -44 120 -53 120 -4 0 -17 -25 -29 -56z m48 -11 c1 -7
-8 -13 -19 -13 -23 0 -23 0 -9 37 10 26 12 27 19 8 5 -11 9 -26 9 -32z"/>
<path d="M598 513 c20 -4 22 -10 22 -59 0 -30 5 -54 10 -54 6 0 10 24 10 54 0
49 2 55 23 59 12 2 -3 4 -33 4 -30 0 -45 -2 -32 -4z"/>
<path d="M800 461 c0 -44 4 -60 16 -65 25 -9 64 -7 64 4 0 6 -13 10 -30 10
-23 0 -30 4 -30 20 0 15 7 20 25 20 14 0 25 5 25 10 0 6 -11 10 -25 10 -18 0
-25 5 -25 19 0 15 8 21 33 24 28 3 26 4 -10 5 l-43 2 0 -59z"/>
<path d="M1012 458 c3 -63 3 -63 36 -66 18 -2 32 1 32 7 0 6 -13 11 -30 11
-29 0 -29 0 -27 55 2 30 -1 55 -5 55 -5 0 -8 -28 -6 -62z"/>
<path d="M1200 460 c0 -33 4 -60 10 -60 6 0 10 27 10 60 0 33 -4 60 -10 60 -6
0 -10 -27 -10 -60z"/>
<path d="M1367 460 c-14 -33 -22 -60 -17 -60 4 0 10 7 14 15 3 9 18 15 36 15
18 0 33 -6 36 -15 4 -8 10 -15 14 -15 5 0 -4 27 -18 60 -15 33 -29 60 -33 60
-3 0 -17 -27 -32 -60z m48 3 c5 -19 2 -23 -14 -23 -23 0 -24 3 -15 38 7 26 18
20 29 -15z"/>
</g>
</svg>
